<?xml version="1.0" encoding="UTF-8"?>
<!DOCTYPE svg PUBLIC "-//W3C//DTD SVG 1.1//EN" "http://www.w3.org/Graphics/SVG/1.1/DTD/svg11.dtd">
<!-- Creator: CorelDRAW -->
<svg xmlns="http://www.w3.org/2000/svg" xml:space="preserve" width="194.283mm" height="47.7969mm" version="1.1" style="shape-rendering:geometricPrecision; text-rendering:geometricPrecision; image-rendering:optimizeQuality; fill-rule:evenodd; clip-rule:evenodd"
viewBox="0 0 17690.72 4352.22"
 xmlns:xlink="http://www.w3.org/1999/xlink"
 xmlns:xodm="http://www.corel.com/coreldraw/odm/2003">
 <defs>
  <style type="text/css">
   <![CDATA[
    .str7 {stroke:#28A9E3;stroke-width:64.25;stroke-miterlimit:22.9256}
    .str4 {stroke:#42D629;stroke-width:64.25;stroke-miterlimit:22.9256}
    .str6 {stroke:#E12318;stroke-width:64.25;stroke-miterlimit:22.9256}
    .str5 {stroke:#FACE2F;stroke-width:64.25;stroke-miterlimit:22.9256}
    .str3 {stroke:#28A9E3;stroke-width:18.21;stroke-miterlimit:22.9256}
    .str0 {stroke:#42D629;stroke-width:18.21;stroke-miterlimit:22.9256}
    .str1 {stroke:#E12318;stroke-width:18.21;stroke-miterlimit:22.9256}
    .str2 {stroke:#FACE2F;stroke-width:18.21;stroke-miterlimit:22.9256}
    .fil5 {fill:none}
    .fil1 {fill:#E31E24}
    .fil4 {fill:#28A9E3}
    .fil0 {fill:#42D629}
    .fil2 {fill:#E12318}
    .fil3 {fill:#FACE2F}
   ]]>
  </style>
 </defs>
 <g id="Слой_x0020_1">
  <metadata id="CorelCorpID_0Corel-Layer"/>
  <path class="fil0 str0" d="M183.98 3035.83c49.79,-38.62 99.57,-77.23 149.36,-115.84 -91.48,-227.08 -141.83,-475.15 -141.83,-734.97 0,-282.77 59.63,-551.61 167.02,-794.64 -50.42,-36.09 -100.85,-72.17 -151.25,-108.27 -127.18,274.54 -198.17,580.43 -198.17,902.91 0,302.22 62.35,589.87 174.87,850.81z"/>
  <path class="fil0 str0" d="M683.98 882.72c360.61,-408.27 888.02,-665.75 1475.57,-665.75 357.19,0 692.16,95.16 980.92,261.51 86.69,2.77 173.37,5.53 243.93,18.52 70.57,12.98 125.02,36.19 179.47,59.4 -376.77,-325.17 -867.59,-521.82 -1404.33,-521.82 -639.43,0 -1213.67,279.08 -1607.56,722.07 43.99,42.03 87.99,84.05 131.99,126.08z"/>
  <path class="fil0 str0" d="M3425.97 3691.52c-342.26,288.02 -784.08,461.54 -1266.41,461.54 -590.83,0 -1120.86,-260.36 -1481.61,-672.61 -45.15,40.72 -90.31,81.44 -135.46,122.16 394.13,449.24 972.48,732.84 1617.07,732.84 694.59,0 1312.25,-329.31 1705.41,-840.31 -71.42,47.42 -142.84,94.85 -216.01,127.59 -73.15,32.73 -148.08,50.75 -222.98,68.78z"/>
  <path class="fil1 str1" d="M539.11 3302.2c285.96,-239.02 484.83,-578.81 542,-964.77l301.62 0c111.18,750.55 758.15,1326.47 1539.62,1326.47 254.18,0 494.12,-60.94 706.03,-168.97 174.28,-88.86 329.6,-209.59 458.28,-354.52 244,-274.81 392.18,-636.6 392.18,-1033.01 0,-510.5 -245.78,-963.61 -625.45,-1247.44 -153.52,-114.76 -328.92,-201.85 -518.81,-253.87 -131.29,-35.97 -269.52,-55.18 -412.22,-55.18 -821.9,0 -1495.02,637.05 -1552.51,1444.29l-275.82 0c-28.62,-401.79 -209.75,-761.41 -485.81,-1021.31 -44.29,-41.69 -91.01,-80.81 -139.95,-117.14 -12.46,-9.24 -25.05,-18.3 -37.79,-27.18 -45.79,0.56 -89.65,3.41 -123.89,17.39 -42.93,17.54 -70.75,52.61 -83.39,95.45 -12.63,42.82 -10.08,93.41 -7.52,143.98 22.96,15.2 45.38,31.15 67.24,47.81 49.73,37.94 96.45,79.6 139.77,124.57 211.9,219.97 342.2,519.09 342.2,848.62 0,355.67 -151.78,675.89 -394.09,899.41 -45.86,42.3 -94.96,81.15 -146.89,116.12 -24.38,16.42 -49.4,31.98 -74.98,46.65 -3.27,45.82 -6.54,91.64 5.24,131.19 11.77,39.54 38.59,72.82 72.77,91.23 34.19,18.41 75.75,21.95 99.36,25.95 23.61,3.99 29.27,8.43 34.93,12.88 10.52,-6.53 20.95,-13.18 31.3,-19.95 51.03,-33.38 99.99,-69.69 146.62,-108.67zm2383.23 28.56c-675.65,0 -1223.36,-547.71 -1223.36,-1223.36 0,-675.63 547.71,-1223.35 1223.36,-1223.35 503.94,0 936.74,304.73 1124.14,739.97 63.85,148.28 99.22,311.7 99.22,483.38 0,85.61 -8.8,169.16 -25.52,249.81 -115.33,555.84 -607.8,973.55 -1197.83,973.55z"/>
  <rect class="fil0 str0" x="5051.63" y="9.1" width="134.39" height="4334.01"/>
  <path class="fil0 str0" d="M6711.81 2647.91c4.2,-252 4.2,-252 60.2,-254.79 55.99,-2.8 168,-8.4 224,-11.21 55.99,-2.8 55.99,-2.8 54.6,57.4 -1.4,60.2 -4.2,180.59 43.39,354.19 47.6,173.59 145.6,400.38 250.59,547.38 105,146.99 217.01,214.19 327.59,259 110.6,44.79 219.79,67.19 340.19,62.99 120.4,-4.2 252,-35 373.79,-116.21 121.8,-81.2 233.8,-212.79 309.39,-359.78 75.6,-147 114.79,-309.39 144.2,-496.99 29.4,-187.59 49,-400.38 44.8,-627.17 -4.2,-226.79 -32.2,-467.58 -75.6,-656.58 -43.4,-189 -102.2,-326.19 -184.8,-439.58 -82.6,-113.39 -189,-202.99 -305.19,-264.59 -116.2,-61.59 -242.18,-95.2 -383.58,-85.39 -141.39,9.8 -298.18,62.99 -438.18,165.19 -140,102.19 -263.19,253.38 -337.38,467.58 -74.2,214.19 -99.41,491.4 -112.01,629.98 -12.59,138.6 -12.59,138.6 -67.19,137.19 -54.6,-1.39 -163.79,-4.21 -217,-12.6 -53.2,-8.4 -50.4,-22.4 -49,-279.99 1.4,-257.59 1.4,-758.77 1.4,-1009.36 0,-250.6 0,-250.6 -51.8,-249.19 -51.79,1.4 -155.39,4.2 -225.7,5.72 -70.3,1.51 -107.33,1.75 -125.94,2.17 -18.6,0.42 -18.8,1 -18.48,3.69 0.31,2.69 1.13,7.45 12.73,578.22 11.62,570.77 34.01,1707.53 48.01,2275.91 14,568.37 19.61,568.37 72.81,568.37 53.2,0 153.99,0 205.79,1.4 51.8,1.39 54.6,4.21 60.2,-246.38 5.6,-250.6 14,-754.58 18.2,-1006.57zm1277.41 699.02c-350.44,0 -634.53,-553.83 -634.53,-1237.01 0,-683.18 284.09,-1237.01 634.53,-1237.01 350.44,0 634.53,553.83 634.53,1237.01 0,683.18 -284.09,1237.01 -634.53,1237.01z"/>
  <path class="fil2 str1" d="M7781.33 1185.46l186.37 274.84 271.68 -252.72 191.67 185.68c10.62,10.82 21.23,21.64 26.54,25.65 5.31,4.02 5.31,1.27 4.27,-7.05 -1.03,-8.3 -3.11,-22.16 -12.8,-46.39 -9.7,-24.24 -27.01,-58.86 -53.31,-104.55 -26.32,-45.7 -61.63,-102.48 -108.37,-154.41 -46.73,-51.93 -104.9,-99.01 -164.79,-125.67 -59.89,-26.66 -121.51,-32.89 -174.48,-25.96 -52.97,6.92 -97.28,26.99 -142.29,63.35 -45,36.35 -90.7,88.98 -133.85,152.73 -43.16,63.75 -83.78,138.64 -124.4,213.53l233.77 -199.02z"/>
  <path class="fil3 str2" d="M7970.86 1577.18l-224.29 -278 -262.19 243.24c-15.16,51.24 -30.32,102.48 -42.68,169.92 -12.36,67.42 -21.92,151.03 -27.48,201.2 -5.57,50.16 -7.18,66.88 -3.84,70.24 3.34,3.35 11.62,-6.66 19.88,-16.67l252.72 -277.99 259.02 293.78 211.65 -319.04 208.47 277.98 182.81 -219.41c-6.36,-40.61 -12.74,-81.21 -19.44,-110.16 -6.69,-28.95 -13.73,-46.24 -20.76,-63.52l-271.67 -249.56 -262.21 278z"/>
  <path class="fil4 str3" d="M7935.31 2090.6l-259.02 -293.78 -252.72 277.99c-7.18,59.46 -14.37,118.92 -11.97,181.1 2.41,62.18 14.39,127.09 26.37,191.99l203.95 -245.47 259.02 293.77 211.65 -319.03 208.47 277.97 224.27 -211.63c5.46,-71.43 10.93,-142.87 10.86,-211.52 -0.06,-68.66 -5.65,-134.54 -11.24,-200.42l-189.52 217.96 -208.48 -277.98 -211.65 319.04z"/>
  <path class="fil0 str0" d="M7906.13 2602.82l-260.97 -282.94 -181.3 233.5c12.66,62.82 25.32,125.65 44.09,186.55 18.78,60.88 43.66,119.84 68.55,178.8l156.57 -156.58 208.77 159.33 225.26 -244.49 197.78 214.27c38.03,-91.21 76.05,-182.43 103.07,-269.42 27.01,-87 43.01,-169.76 59,-252.52l-208.77 197.78 -211.52 -255.47 -200.53 291.18z"/>
  <path class="fil2 str1" d="M8161.61 2792.37l-219.76 214.27 -200.53 -156.58 -120.86 123.62c2.67,14.3 5.34,28.61 16.63,45.32 11.29,16.71 31.2,35.82 54.69,61.31 23.49,25.48 50.56,57.34 81.63,82.83 31.06,25.48 66.1,44.59 104.32,58.52 38.22,13.94 79.63,22.7 130.98,15.13 51.37,-7.57 112.69,-31.46 166.05,-70.48 53.35,-39.02 98.75,-93.17 120.4,-135.12 21.66,-41.95 19.6,-71.71 17.53,-101.46l-151.08 -137.36z"/>
  <path class="fil5 str4" d="M8486.58 816.93l217.73 -124.83c546.11,894.99 547.1,1997.39 -43.72,2804.31 -48.97,66.87 -50.04,65.82 -70.51,49 -20.48,-16.82 -60.39,-49.4 -100.3,-82"/>
  <path class="fil5 str4" d="M6300.13 731.93c-78.07,12.8 -156.14,25.6 -195.18,32 -39.05,6.39 -39.05,6.39 -31.63,460.82 7.42,454.42 22.25,1363.26 32.84,1822.98 10.59,459.72 16.95,470.31 58.52,474.71 41.59,4.38 118.42,2.55 195.23,0.73"/>
  <polyline class="fil5 str5" points="9560.42,785.29 9355.17,780.04 9543.16,3611.02 9689.38,3602.63 "/>
  <path class="fil4 str3" d="M9935.27 1240.63l408.71 0c-50.22,-60.31 -113.84,-112.96 -190.78,-158.32 -59.95,-35.35 -125.38,-57.5 -193.57,-70.25 -8.91,-1.66 -20.2,-3.69 -31.96,-5.34 0.06,2.48 0.12,4.82 0.15,6.95 0.9,52.79 3.04,105.71 4.94,158.47 0.82,22.83 1.66,45.65 2.5,68.48z"/>
  <path class="fil0 str0" d="M10398.8 1318.38l-460.53 3.21c1.99,53.44 4.02,106.89 6.06,160.34l520.55 1.5c-14.3,-59.61 -36.34,-114.57 -66.09,-165.06z"/>
  <path class="fil2 str1" d="M10478.8 1560.87l-531.45 0c2.45,64.43 4.9,128.85 7.31,193.29l518.71 1.49c7.82,-33.42 11.66,-68.26 11.27,-104.72 -0.33,-31 -2.28,-61.03 -5.85,-90.05z"/>
  <path class="fil4 str3" d="M10449.48 1827.7l-491.97 2.92c2,54.3 3.96,108.59 5.86,162.89l370.17 0.56c18.74,-19.53 36.21,-39.47 51.92,-59.69 26.44,-34.06 47.9,-69.5 64.01,-106.69z"/>
  <path class="fil0 str0" d="M10260.84 2062.8l-295.08 0c0.52,15.14 1.03,30.29 1.53,45.43 1.72,51.61 3.3,103.2 4.71,154.81 46.05,-23.28 91.33,-52.49 132.39,-80.59 50.89,-34.82 105.52,-75.43 156.45,-119.66z"/>
  <path class="fil3 str2" d="M10440.73 1977.3c-79.96,102.98 -204.75,199.91 -296.83,262.91 -92.07,62.99 -151.44,92.07 -186.57,106.6 -35.13,14.54 -46.03,14.54 -50.27,10.91 -4.24,-3.63 -1.82,-10.91 -9.71,-247.15 -7.87,-236.26 -26.03,-701.47 -34.52,-935.9 -8.48,-234.43 -7.27,-238.08 8.49,-239.89 15.75,-1.81 46.03,-1.81 101.15,8.49 55.13,10.3 135.09,30.89 216.26,78.75 239.11,140.95 362.97,350.39 365.88,628.18 1.21,115.09 -33.93,224.12 -113.88,327.1zm-686.12 -1386.6c-96.72,-0.92 -145.48,-1.38 -172.2,3.39 -18.35,3.28 -26.29,9.03 -22,191.2 1.96,83.01 6.45,202.65 13.66,375.38 23.03,551.79 73.76,1645.38 101.87,2192.17 5.18,100.66 9.59,182.79 13.43,249.8 17.04,296.99 22.93,296.99 34.96,296.99 14.74,0 38.7,0 101.33,-0.92 62.65,-0.92 163.97,-2.76 289.25,-16.58 125.29,-13.82 274.53,-39.61 391.52,-121.6 117,-81.99 201.74,-220.17 246.88,-373.08 45.14,-152.93 50.66,-320.57 -35.01,-466.13 -85.67,-145.55 -262.53,-268.99 -349.13,-336.24 -86.59,-67.25 -82.91,-78.3 -69.09,-94.88 13.82,-16.59 37.78,-38.69 93.97,-86.59 56.19,-47.91 144.63,-121.62 221.09,-226.63 76.46,-105.01 140.95,-241.35 174.11,-403.48 33.16,-162.14 35,-350.05 -21.19,-520.47 -56.19,-170.43 -170.42,-323.34 -284.66,-430.2 -114.22,-106.86 -228.44,-167.66 -357.91,-198.75 -129.46,-31.1 -274.14,-32.47 -370.87,-33.39zm279.13 2225.84c21.07,0 47.65,0 88.43,9.62 40.78,9.62 95.76,28.87 139.74,61.86 43.99,32.99 76.98,79.71 102.64,122.33 25.65,42.61 43.99,81.1 53.6,138.83 9.62,57.73 10.54,134.7 -25.2,206.18 -35.73,71.47 -108.13,137.45 -180.98,183.27 -72.85,45.82 -146.15,71.48 -183.27,82.01 -37.11,10.54 -38.03,5.96 -46.27,-130.58 -8.25,-136.54 -23.82,-405.03 -25.2,-539.27 -1.37,-134.25 -14.7,-135.44 -0.49,-135.44 14.2,0 55.93,1.18 77,1.18z"/>
  <path class="fil2 str1" d="M10219.93 2944.01c-32.06,-24.05 -74.99,-40.57 -113.82,-49.74 -25.56,-6.03 -46.38,-7.75 -72.36,-7.75 -2.77,0 -5.54,-0.02 -8.31,-0.04 1.06,21.19 1.56,42.41 1.78,63.59 0.45,42.6 1.5,85.45 3,128.43l292.25 0c-5.24,-10.44 -11.16,-20.95 -17.85,-32.05 -22.3,-37.03 -49.78,-76.27 -84.67,-102.44z"/>
  <path class="fil3 str2" d="M10346.79 3148.06l-313.84 -1.1c2.41,53.94 5.37,107.98 8.55,161.9l295.27 1.09c19.13,-46.89 20.63,-99.68 12.37,-149.26 -0.72,-4.33 -1.5,-8.53 -2.35,-12.63z"/>
  <path class="fil4 str3" d="M10291.91 3380.57l-246.08 0c2.16,35.22 4.34,70.34 6.46,105.29 0.73,12.12 1.34,32.53 2.57,52.58 41.9,-15.63 83.57,-36.19 119.88,-59.02 39.77,-25.01 83.58,-59.63 117.18,-98.84z"/>
  <polygon class="fil0 str0" points="11158.46,3899.62 11063.35,600.01 12285.17,600.01 12292.48,863.39 11421.85,870.7 11443.8,1741.34 12102.26,1741.34 12102.26,1975.45 11429.16,1997.4 11473.06,3592.35 12138.84,3592.35 12153.47,3870.37 "/>
  <line class="fil5 str4" x1="11655.89" y1="868.74" x2="11655.89" y2= "1741.34" />
  <polyline class="fil5 str4" points="12102.26,1858.4 12233.96,1858.4 12233.96,2165.67 11677.91,2172.99 11677.91,3592.35 "/>
  <path class="fil2 str1" d="M12790.47 749.64c4.22,322.23 23.86,967.34 36.48,1546.53 12.62,579.18 18.24,1092.47 23.85,1349.11 5.61,256.63 11.22,256.63 75.73,253.84 64.5,-2.81 187.91,-8.42 249.61,-11.23 61.71,-2.8 61.71,-2.8 60.31,-360.41 -1.4,-357.62 -4.22,-1072.84 -5.61,-1430.44 -0.94,-240.14 -30.19,-337.15 7.91,-364.32 2.15,-1.53 513.45,-7.46 565.7,-11.94 170.29,-14.62 198.35,-37.27 203.32,345.4 4.96,382.66 4.21,1056.01 5.61,1412.21 1.4,356.2 4.21,364.62 74.33,364.62 70.12,0 207.55,-8.41 279.08,-12.62 71.52,-4.21 77.13,-4.21 79.93,-590.4 2.81,-586.2 2.81,-1758.62 2.81,-2344.82 0,-586.2 0,-586.2 -84.15,-580.59 -84.15,5.61 -252.44,16.83 -336.58,23.84 -84.15,7.01 -84.15,9.82 -77.13,203.35 7.01,193.53 21.04,577.79 25.25,771.32 4.21,193.53 -1.41,196.34 -133.23,201.95 -131.82,5.61 -389.87,14.02 -518.89,18.23 -129.02,4.21 -129.02,4.21 -144.45,-180.91 -15.42,-185.12 -46.27,-555.34 -61.71,-740.46 -15.42,-185.12 -15.42,-185.12 -64.52,-184.81 -49.11,0.32 -147.32,0.95 -202.02,0.95 -16.69,0 -53.38,-5.56 -62.74,3.51 -21.35,20.65 -1.82,94.23 1.11,318.11z"/>
  <polyline class="fil5 str6" points="12785.59,626.94 12564.93,626.85 12601.32,3556.88 12848.94,3552.34 "/>
  <polyline class="fil5 str6" points="13180.34,1352.35 13798.44,1352.35 13798.44,563.83 13952.74,571.42 "/>
  <polygon class="fil3 str2" points="14748.45,1000.57 14737.37,690.5 16104.97,668.36 16104.97,950.74 15650.96,967.35 15695.25,3713.61 15302.13,3724.69 15257.84,1000.57 "/>
  <polyline class="fil5 str5" points="15877.97,959.04 15927.79,3403.56 15690.31,3407.39 "/>
  <polyline class="fil5 str7" points="16537.74,2404.77 16960.37,2396.89 17081.35,3492.1 17303.62,3495.48 "/>
  <polygon class="fil0 str0" points="16780.62,1343.17 16920.23,1207.01 16880.54,957.81 16830.11,952.21 "/>
  <polygon class="fil2 str1" points="16937.18,1313.53 16765.24,1464.64 16729.81,1744.47 16972.47,1535.09 "/>
  <polygon class="fil3 str2" points="16989.84,1644.2 16800.06,1815.51 17018.09,1821.57 "/>
  <path class="fil4 str3" d="M16641.99 1881.12l127.35 -1006.07 171.92 19.09 159.19 999.71 -458.47 -12.74zm-585.81 2018.51l222.87 -12.73 258.7 -1482.13 46.94 -268.94 503.03 25.47 215.91 1334.19 32.42 200.38 343.86 0 -547.61 -3164.65 -528.5 -95.51 -547.61 3463.93z"/>
 </g>
</svg>
